<?xml version="1.0" encoding="UTF-8"?>
<svg width="426px" height="173px" viewBox="0 0 426 173" version="1.1" xmlns="http://www.w3.org/2000/svg"
     xmlns:xlink="http://www.w3.org/1999/xlink">
    <title>Group</title>
    <g id="Page-1" stroke="none" stroke-width="1" fill="none" fill-rule="evenodd">
        <g id="Group" transform="translate(2, 2)">
            <g id="Background">
                <g id="path-15z6psmq_y-1-link" fill="#000000" fill-rule="nonzero">
                    <path d="M32.048565,0 L389.951435,0 C401.095419,0 405.136497,1.16032014 409.210571,3.3391588 C413.284645,5.51799746 416.482003,8.71535463 418.660841,12.7894287 C420.83968,16.8635028 422,20.9045808 422,32.048565 L422,136.951435 C422,148.095419 420.83968,152.136497 418.660841,156.210571 C416.482003,160.284645 413.284645,163.482003 409.210571,165.660841 C405.136497,167.83968 401.095419,169 389.951435,169 L32.048565,169 C20.9045808,169 16.8635028,167.83968 12.7894287,165.660841 C8.71535463,163.482003 5.51799746,160.284645 3.3391588,156.210571 C1.16032014,152.136497 0,148.095419 0,136.951435 L0,32.048565 C0,20.9045808 1.16032014,16.8635028 3.3391588,12.7894287 C5.51799746,8.71535463 8.71535463,5.51799746 12.7894287,3.3391588 C16.8635028,1.16032014 20.9045808,0 32.048565,0 Z"
                          id="path-15z6psmq_y-1"></path>
                </g>
                <g id="path-15z6psmq_y-1-link" fill="#26262B" fill-opacity="0.9" stroke="#EDCFB5" stroke-width="4">
                    <path d="M32.048565,0 L389.951435,0 C401.095419,0 405.136497,1.16032014 409.210571,3.3391588 C413.284645,5.51799746 416.482003,8.71535463 418.660841,12.7894287 C420.83968,16.8635028 422,20.9045808 422,32.048565 L422,136.951435 C422,148.095419 420.83968,152.136497 418.660841,156.210571 C416.482003,160.284645 413.284645,163.482003 409.210571,165.660841 C405.136497,167.83968 401.095419,169 389.951435,169 L32.048565,169 C20.9045808,169 16.8635028,167.83968 12.7894287,165.660841 C8.71535463,163.482003 5.51799746,160.284645 3.3391588,156.210571 C1.16032014,152.136497 0,148.095419 0,136.951435 L0,32.048565 C0,20.9045808 1.16032014,16.8635028 3.3391588,12.7894287 C5.51799746,8.71535463 8.71535463,5.51799746 12.7894287,3.3391588 C16.8635028,1.16032014 20.9045808,0 32.048565,0 Z"
                          id="path-15z6psmq_y-1"></path>
                </g>
            </g>
            <g id="Button-Label" transform="translate(157, 29.5)" fill="#EDCFB5" fill-rule="nonzero">
                <polygon id="Path" points="0 34 21 34 21 30.1829522 4.31506849 30.1829522 4.31506849 0 0 0"></polygon>
                <path d="M34.5119418,35 C36.8047767,35 38.8110073,34.4703704 40.5306334,33.4111111 C42.2502596,32.3518519 43.5917272,30.8512346 44.5550363,28.9092593 C45.5183454,26.967284 46,24.6641975 46,22 L46,21.9518519 C46,19.2876543 45.5183454,16.9885802 44.5550363,15.0546296 C43.5917272,13.120679 42.246279,11.6280864 40.5186916,10.5768519 C38.7911042,9.52561728 36.780893,9 34.4880582,9 C32.2111457,9 30.2088958,9.52561728 28.4813084,10.5768519 C26.753721,11.6280864 25.4082728,13.120679 24.4449637,15.0546296 C23.4816546,16.9885802 23,19.2876543 23,21.9518519 L23,22 C23,24.6481481 23.4816546,26.9472222 24.4449637,28.8972222 C25.4082728,30.8472222 26.753721,32.3518519 28.4813084,33.4111111 C30.2088958,34.4703704 32.219107,35 34.5119418,35 Z M34.5358255,31.2925926 C33.0709588,31.2925926 31.793181,30.9274691 30.7024922,30.1972222 C29.6118034,29.4669753 28.7639322,28.407716 28.1588785,27.0194444 C27.5538249,25.6311728 27.251298,23.9580247 27.251298,22 L27.251298,21.9518519 C27.251298,19.9938272 27.5538249,18.3287037 28.1588785,16.9564815 C28.7639322,15.5842593 29.6118034,14.5330247 30.7024922,13.8027778 C31.793181,13.0725309 33.0550363,12.7074074 34.4880582,12.7074074 C35.9529249,12.7074074 37.2307027,13.0685185 38.3213915,13.7907407 C39.4120803,14.512963 40.2559709,15.5641975 40.8530633,16.9444444 C41.4501558,18.3246914 41.748702,19.9938272 41.748702,21.9518519 L41.748702,22 C41.748702,23.9580247 41.4501558,25.6311728 40.8530633,27.0194444 C40.2559709,28.407716 39.4200415,29.4669753 38.3452752,30.1972222 C37.2705088,30.9274691 36.0006923,31.2925926 34.5358255,31.2925926 Z"
                      id="Shape"></path>
                <path d="M60.8873684,43 C63.1631579,43 65.1322807,42.6076923 66.7947368,41.8230769 C68.457193,41.0384615 69.7403509,39.9368298 70.6442105,38.5181818 C71.5480702,37.0995338 72,35.4312354 72,33.5132867 L72,9.47552448 L67.7873684,9.47552448 L67.7873684,13.6601399 L67.6905263,13.6601399 C67.1740351,12.7407925 66.524386,11.9324009 65.7415789,11.234965 C64.9587719,10.5375291 64.0670175,9.99067599 63.0663158,9.59440559 C62.065614,9.1981352 60.9680702,9 59.7736842,9 C57.6431579,9 55.7708772,9.52307692 54.1568421,10.5692308 C52.542807,11.6153846 51.2798246,13.0855478 50.3678947,14.9797203 C49.4559649,16.8738928 49,19.1048951 49,21.6727273 L49,21.6965035 C49,24.2643357 49.4478947,26.5032634 50.3436842,28.4132867 C51.2394737,30.32331 52.4903509,31.8053613 54.0963158,32.8594406 C55.7022807,33.9135198 57.5624561,34.4405594 59.6768421,34.4405594 C60.8873684,34.4405594 62.0050877,34.2543124 63.03,33.8818182 C64.0549123,33.509324 64.962807,32.9902098 65.7536842,32.3244755 C66.5445614,31.6587413 67.1901754,30.8662005 67.6905263,29.9468531 L67.7873684,29.9468531 L67.7873684,33.1090909 C67.7873684,35.0270396 67.1821053,36.5447552 65.9715789,37.6622378 C64.7610526,38.7797203 63.0501754,39.3384615 60.8389474,39.3384615 C59.1280702,39.3384615 57.695614,39.0808858 56.5415789,38.5657343 C55.3875439,38.0505828 54.6087719,37.3491841 54.2052632,36.4615385 L54.1084211,36.2475524 L49.8715789,36.2475524 L49.92,36.4615385 C50.194386,37.6820513 50.8036842,38.7876457 51.7478947,39.7783217 C52.6921053,40.7689977 53.9349123,41.5536131 55.4763158,42.1321678 C57.0177193,42.7107226 58.8214035,43 60.8873684,43 Z M60.5968421,30.779021 C59.1119298,30.779021 57.8207018,30.4104895 56.7231579,29.6734266 C55.625614,28.9363636 54.7822807,27.8902098 54.1931579,26.534965 C53.6040351,25.1797203 53.3094737,23.5668998 53.3094737,21.6965035 L53.3094737,21.6727273 C53.3094737,19.8340326 53.6040351,18.2410256 54.1931579,16.8937063 C54.7822807,15.5463869 55.625614,14.5041958 56.7231579,13.7671329 C57.8207018,13.0300699 59.1119298,12.6615385 60.5968421,12.6615385 C62.017193,12.6615385 63.2680702,13.0340326 64.3494737,13.779021 C65.4308772,14.5240093 66.2742105,15.5701632 66.8794737,16.9174825 C67.4847368,18.2648019 67.7873684,19.8498834 67.7873684,21.6727273 L67.7873684,21.6965035 C67.7873684,23.5193473 67.4847368,25.1123543 66.8794737,26.4755245 C66.2742105,27.8386946 65.4349123,28.8967366 64.3615789,29.6496503 C63.2882456,30.4025641 62.0333333,30.779021 60.5968421,30.779021 Z"
                      id="Shape"></path>
                <path d="M78.5045872,35 L82.4954128,35 L82.4954128,10.3417015 L78.5045872,10.3417015 L78.5045872,35 Z M80.5,6.16875872 C81.2033639,6.16875872 81.7958716,5.91585309 82.2775229,5.41004184 C82.7591743,4.90423059 83,4.29567643 83,3.58437936 C83,2.85727569 82.7591743,2.24476987 82.2775229,1.74686192 C81.7958716,1.24895397 81.2033639,1 80.5,1 C79.8119266,1 79.2232416,1.24895397 78.733945,1.74686192 C78.2446483,2.24476987 78,2.85727569 78,3.58437936 C78,4.29567643 78.2446483,4.90423059 78.733945,5.41004184 C79.2232416,5.91585309 79.8119266,6.16875872 80.5,6.16875872 Z"
                      id="Shape"></path>
                <path d="M88,35 L92.0559441,35 L92.0559441,20.5660377 C92.0559441,19.1666667 92.3162393,17.9481132 92.8368298,16.9103774 C93.3574204,15.8726415 94.0916861,15.0668239 95.039627,14.4929245 C95.987568,13.9190252 97.0986791,13.6320755 98.3729604,13.6320755 C100.237762,13.6320755 101.632479,14.1627358 102.55711,15.2240566 C103.48174,16.2853774 103.944056,17.8144654 103.944056,19.8113208 L103.944056,35 L108,35 L108,19.0801887 C108,16.2814465 107.265734,14.0683962 105.797203,12.4410377 C104.328671,10.8136792 102.265734,10 99.6083916,10 C97.7746698,10 96.2362082,10.3734277 94.993007,11.120283 C93.7498057,11.8671384 92.8018648,12.8144654 92.1491841,13.9622642 L92.0559441,13.9622642 L92.0559441,10.4716981 L88,10.4716981 L88,35 Z"
                      id="Path"></path>
            </g>
            <g id="Setapp" transform="translate(154, 80.5)" fill="#EDCFB5" fill-rule="nonzero">
                <path d="M20.0643762,54 C24.2083984,54 27.7693509,53.3523234 30.7472336,52.0569702 C33.7251164,50.7616171 36.0117148,48.9209264 37.6070289,46.5348983 C39.202343,44.1488702 40,41.3316231 40,38.0831571 L40,38.0469709 C40,35.3397902 39.464821,33.0240613 38.3944631,31.0997843 C37.3241052,29.1755073 35.6668094,27.5740791 33.4225759,26.2954998 C31.1783423,25.0169204 28.2853735,24.0069106 24.7436694,23.2654702 L19.2531808,22.1024229 C17.201247,21.6568802 15.5140196,21.1133332 14.1914985,20.4717819 C12.8689774,19.8302306 11.889796,19.052604 11.2539544,18.1389023 C10.6181128,17.2252005 10.300192,16.1597805 10.300192,14.9426423 L10.300192,14.9064561 C10.300192,13.5004712 10.6930802,12.26769 11.4788567,11.2081126 C12.2646332,10.1485352 13.384908,9.32049295 14.8396812,8.72398593 C16.2944543,8.1274789 18.0117056,7.82922539 19.9914349,7.82922539 C21.906696,7.82922539 23.5941076,8.12107093 25.0536699,8.704762 C26.5132321,9.28845308 27.6919889,10.1178146 28.5899402,11.1928465 C29.4878915,12.2678785 30.040569,13.5681318 30.2479727,15.0936067 L30.3070993,15.5544154 L39.0246868,15.5544154 L38.9893213,14.9313342 C38.8158095,11.9546416 37.9320412,9.34442862 36.3380165,7.10069524 C34.7439918,4.85696187 32.5600822,3.11257931 29.7862876,1.86754759 C27.012493,0.622515863 23.7692772,0 20.05664,0 C16.3955775,0 13.1424151,0.646074592 10.2971528,1.93822378 C7.45189053,3.23037296 5.22009016,5.02724436 3.6017517,7.32883798 C1.98341323,9.6304316 1.16613941,12.3159383 1.14993024,15.385358 L1.14993024,15.4215442 C1.14993024,18.0081042 1.70288404,20.2730404 2.80879163,22.2163529 C3.91469923,24.1596654 5.57613936,25.7862543 7.79311202,27.0961196 C10.0100847,28.405985 12.7881157,29.4156179 16.1272052,30.1250183 L21.6176938,31.2886311 C24.9144183,32.0006701 27.2773656,32.9258685 28.7065357,34.0642263 C30.1357058,35.2025841 30.8502908,36.7495445 30.8502908,38.7051075 L30.8502908,38.7412937 C30.8502908,40.2362365 30.4225897,41.5439344 29.5671875,42.6643876 C28.7117853,43.7848407 27.5020837,44.6493519 25.9380828,45.257921 C24.3740819,45.8664901 22.5152767,46.1707746 20.3616672,46.1707746 C18.2382656,46.1707746 16.3495287,45.872898 14.6954564,45.2771449 C13.041384,44.6813917 11.7044957,43.8399682 10.6847915,42.7528742 C9.66508719,41.6657802 9.03292949,40.3798505 8.78831834,38.8950851 L8.71758741,38.4455846 L0,38.4455846 L0.0353654662,39.0098633 C0.240190458,42.1222541 1.18805863,44.8003162 2.87896998,47.0440496 C4.56988133,49.287783 6.87941205,51.0080414 9.80756213,52.2048248 C12.7357122,53.4016083 16.1546502,54 20.0643762,54 Z"
                      id="Path"></path>
                <path d="M63.0388827,53 C65.4852827,53 67.6649603,52.6744428 69.5779154,52.0233285 C71.4908705,51.3722141 73.1383934,50.4896641 74.5204841,49.3756783 C75.9025748,48.2616926 77.0111229,47.016563 77.8461283,45.6402896 C78.6811338,44.2640162 79.2483108,42.8588249 79.5476593,41.4247156 L79.6295009,41.0373624 L71.4038677,41.0373624 L71.3198142,41.2882302 C71.0407417,42.1329291 70.5425034,42.9230153 69.8250991,43.6584891 C69.1076949,44.3939628 68.1952717,44.9881622 67.0878296,45.4410873 C65.9803875,45.8940124 64.692857,46.1204749 63.2252382,46.1204749 C61.2765235,46.1204749 59.5927801,45.6910342 58.1740082,44.8321526 C56.7552362,43.9732711 55.6613422,42.7362459 54.8923262,41.1210771 C54.1233101,39.5059083 53.7388021,37.5622352 53.7388021,35.2900579 L53.7388021,31.8790292 C53.7388021,29.5099676 54.1254299,27.5058799 54.8986855,25.8667663 C55.6719411,24.2276527 56.7363426,22.9866674 58.0918901,22.1438105 C59.4474376,21.3009535 60.9922898,20.8795251 62.7264468,20.8795251 C64.4606039,20.8795251 65.9893274,21.2848368 67.3126175,22.0954604 C68.6359076,22.906084 69.672107,24.1269924 70.4212156,25.7581859 C71.1703243,27.3893793 71.5448786,29.4296604 71.5448786,31.8790292 L71.5448786,35.2674025 L75.7912407,29.7814647 L49.3453462,29.7814647 L49.3453462,35.6658071 L80,35.6658071 L80,32.8206124 C80,29.0528061 79.2970655,25.7555151 77.8911965,22.9287394 C76.4853275,20.1019638 74.4835264,17.9071466 71.8857931,16.344288 C69.2880598,14.7814293 66.2019497,14 62.6274628,14 C59.0529758,14 55.9466818,14.8093342 53.3085807,16.4280027 C50.6704796,18.0466711 48.6261909,20.3224401 47.1757145,23.2553097 C45.7252382,26.1881792 45,29.6234291 45,33.5610592 L45,33.5964239 C45,37.559104 45.7231184,40.9944459 47.1693552,43.9024497 C48.615592,46.8104535 50.6871613,49.0537129 53.384063,50.6322277 C56.0809647,52.2107426 59.2992379,53 63.0388827,53 Z"
                      id="Path"></path>
                <path d="M100.678418,54 C101.57396,54 102.393262,53.9621021 103.136325,53.8863063 C103.879387,53.8105105 104.500612,53.7331081 105,53.654099 L105,46.8704694 C104.705985,46.9026023 104.386071,46.9368143 104.040256,46.9731056 C103.694442,47.0093968 103.308867,47.0275425 102.88353,47.0275425 C101.301102,47.0275425 100.109995,46.6725686 99.3102087,45.9626209 C98.5104224,45.2526732 98.1105292,43.9548828 98.1105292,42.0692496 L98.1105292,21.7223302 L105,21.7223302 L105,14.7498727 L98.1105292,14.7498727 L98.1105292,5 L89.2567029,5 L89.2567029,14.7498727 L84,14.7498727 L84,21.7223302 L89.2567029,21.7223302 L89.2567029,42.8183238 C89.2567029,46.7755829 90.1944683,49.6285103 92.0699992,51.3771062 C93.9455301,53.1257021 96.815003,54 100.678418,54 Z"
                      id="Path"></path>
                <path d="M121.623658,53 C123.290078,53 124.846816,52.7390801 126.293873,52.2172403 C127.740929,51.6954004 129.03619,50.952633 130.179656,49.988938 C131.323121,49.025243 132.254165,47.8881863 132.972788,46.577768 L133.159941,46.577768 L133.159941,52.3582755 L142,52.3582755 L142,26.4981102 C142,23.9792401 141.363199,21.7836336 140.089596,19.9112908 C138.815994,18.0389479 137.023232,16.5856471 134.711311,15.5513883 C132.399389,14.5171294 129.669937,14 126.522954,14 C123.339319,14 120.593669,14.5074315 118.286005,15.5222945 C115.978341,16.5371576 114.173732,17.9226654 112.872177,19.6788181 C111.570622,21.4349707 110.821177,23.430985 110.623843,25.6668609 L110.588301,26.0791605 L118.788041,26.0791605 L118.859126,25.7488775 C119.154572,24.3630925 119.931507,23.2289914 121.18993,22.3465741 C122.448352,21.4641568 124.123473,21.0229482 126.215291,21.0229482 C128.45298,21.0229482 130.169845,21.568063 131.365883,22.6582926 C132.561922,23.7485222 133.159941,25.2407071 133.159941,27.1348471 L133.159941,38.4276458 C133.159941,39.9087473 132.769437,41.2426253 131.98843,42.4292799 C131.207423,43.6159344 130.147816,44.5497044 128.809608,45.23059 C127.471399,45.9114755 125.954646,46.2519183 124.259348,46.2519183 C122.3097,46.2519183 120.749907,45.8104325 119.57997,44.9274611 C118.410033,44.0444896 117.825065,42.8360379 117.825065,41.3021058 L117.825065,41.2422559 C117.825065,39.7559822 118.404943,38.5637859 119.564698,37.6656673 C120.724454,36.7675486 122.390226,36.2551296 124.562014,36.1284103 L137.73769,35.2916193 L137.73769,29.4590201 L123.310811,30.3296152 C120.281192,30.5172928 117.699556,31.0772778 115.565902,32.00957 C113.432247,32.9418623 111.804517,34.210164 110.68271,35.8144751 C109.560903,37.4187862 109,39.3403575 109,41.5791889 L109,41.6390389 C109,43.8690036 109.530359,45.8402651 110.591077,47.5528234 C111.651796,49.2653817 113.1306,50.601384 115.02749,51.5608304 C116.92438,52.5202768 119.123103,53 121.623658,53 Z"
                      id="Path"></path>
                <path d="M150,66 L158.762618,66 L158.762618,46.7700234 L158.94812,46.7700234 C159.671045,48.2767433 160.604517,49.574123 161.748536,50.6621625 C162.892555,51.7502019 164.221709,52.5883196 165.735998,53.1765155 C167.250287,53.7647114 168.89072,54.0588094 170.657299,54.0588094 C173.786058,54.0588094 176.495925,53.2498272 178.786899,51.6318627 C181.077873,50.0138983 182.8528,47.7110611 184.11168,44.7233513 C185.37056,41.7356415 186,38.1792224 186,34.0540942 L186,34.0177694 C186,29.8854519 185.370835,26.321276 184.112506,23.3252418 C182.854177,20.3292075 181.067782,18.025992 178.753322,16.4155952 C176.438862,14.8051984 173.697436,14 170.529044,14 C168.761365,14 167.13405,14.3001521 165.6471,14.9004562 C164.16015,15.5007604 162.854574,16.3525945 161.730371,17.4559584 C160.606168,18.5593224 159.682421,19.8840403 158.959129,21.430112 L158.762618,21.430112 L158.762618,14.7724683 L150,14.7724683 L150,66 Z M167.936973,46.4402628 C166.123056,46.4402628 164.527576,45.9319057 163.150533,44.9151913 C161.77349,43.898477 160.690204,42.4635552 159.900674,40.6104259 C159.111145,38.7572966 158.71638,36.5756365 158.71638,34.0654457 L158.71638,34.0291209 C158.71638,31.4950919 159.107108,29.3015128 159.888564,27.4483835 C160.67002,25.5952542 161.755141,24.1603324 163.143927,23.1436181 C164.532714,22.1269037 166.130396,21.6185466 167.936973,21.6185466 C169.807771,21.6185466 171.427654,22.1144171 172.796624,23.1061582 C174.165594,24.0978992 175.220807,25.520429 175.962264,27.3737475 C176.70372,29.227066 177.074448,31.44174 177.074448,34.0177694 L177.074448,34.0540942 C177.074448,36.5896367 176.705555,38.7839726 175.967768,40.6371019 C175.229981,42.4902312 174.176603,43.920707 172.807633,44.9285293 C171.438663,45.9363517 169.81511,46.4402628 167.936973,46.4402628 Z"
                      id="Shape"></path>
                <path d="M192,66 L200.762618,66 L200.762618,46.7700234 L200.94812,46.7700234 C201.671045,48.2767433 202.604517,49.574123 203.748536,50.6621625 C204.892555,51.7502019 206.221709,52.5883196 207.735998,53.1765155 C209.250287,53.7647114 210.89072,54.0588094 212.657299,54.0588094 C215.786058,54.0588094 218.495925,53.2498272 220.786899,51.6318627 C223.077873,50.0138983 224.8528,47.7110611 226.11168,44.7233513 C227.37056,41.7356415 228,38.1792224 228,34.0540942 L228,34.0177694 C228,29.8854519 227.370835,26.321276 226.112506,23.3252418 C224.854177,20.3292075 223.067782,18.025992 220.753322,16.4155952 C218.438862,14.8051984 215.697436,14 212.529044,14 C210.761365,14 209.13405,14.3001521 207.6471,14.9004562 C206.16015,15.5007604 204.854574,16.3525945 203.730371,17.4559584 C202.606168,18.5593224 201.682421,19.8840403 200.959129,21.430112 L200.762618,21.430112 L200.762618,14.7724683 L192,14.7724683 L192,66 Z M209.936973,46.4402628 C208.123056,46.4402628 206.527576,45.9319057 205.150533,44.9151913 C203.77349,43.898477 202.690204,42.4635552 201.900674,40.6104259 C201.111145,38.7572966 200.71638,36.5756365 200.71638,34.0654457 L200.71638,34.0291209 C200.71638,31.4950919 201.107108,29.3015128 201.888564,27.4483835 C202.67002,25.5952542 203.755141,24.1603324 205.143927,23.1436181 C206.532714,22.1269037 208.130396,21.6185466 209.936973,21.6185466 C211.807771,21.6185466 213.427654,22.1144171 214.796624,23.1061582 C216.165594,24.0978992 217.220807,25.520429 217.962264,27.3737475 C218.70372,29.227066 219.074448,31.44174 219.074448,34.0177694 L219.074448,34.0540942 C219.074448,36.5896367 218.705555,38.7839726 217.967768,40.6371019 C217.229981,42.4902312 216.176603,43.920707 214.807633,44.9285293 C213.438663,45.9363517 211.81511,46.4402628 209.936973,46.4402628 Z"
                      id="Shape"></path>
            </g>
            <g id="Shape" transform="translate(42, 29)" fill="#E6C3A5" fill-rule="nonzero">
                <path d="M40.5636938,37.6350083 C40.0233232,37.1024032 39.7189367,36.3743068 39.7189367,35.614338 C39.7189367,34.8543692 40.0233232,34.1262728 40.5636938,33.5936677 L53.3264612,20.7897942 C53.8573564,20.2476831 54.5831153,19.9423163 55.3406442,19.9423163 C56.0981732,19.9423163 56.8239321,20.2476831 57.3548273,20.7897942 L70.1175946,33.5936677 C70.6579653,34.1262728 70.9623517,34.8543692 70.9623517,35.614338 C70.9623517,36.3743068 70.6579653,37.1024032 70.1175946,37.6350083 L57.3548273,50.4388818 C56.8239321,50.9809929 56.0981732,51.2863597 55.3406442,51.2863597 C54.5831153,51.2863597 53.8573564,50.9809929 53.3264612,50.4388818 L40.5636938,37.6350083 L40.5636938,37.6350083 Z M33.485817,30.5721046 L20.6854013,17.7304616 C20.1450307,17.1978565 19.8406442,16.4697601 19.8406442,15.7097913 C19.8406442,14.9498224 20.1450307,14.221726 20.6854013,13.6891209 L33.485817,0.847477877 C34.0167121,0.305366793 34.742471,0 35.5,0 C36.257529,0 36.9832879,0.305366793 37.514183,0.847477877 L50.2769504,13.6513514 C50.8173211,14.1839565 51.1217075,14.9120529 51.1217075,15.6720217 C51.1217075,16.4319905 50.8173211,17.1600869 50.2769504,17.692692 L37.514183,30.5721046 C36.9832879,31.1142157 36.257529,31.4195825 35.5,31.4195825 C34.742471,31.4195825 34.0167121,31.1142157 33.485817,30.5721046 Z M33.485817,40.6943409 C34.0167121,40.1522298 34.742471,39.8468631 35.5,39.8468631 C36.257529,39.8468631 36.9832879,40.1522298 37.514183,40.6943409 L50.2769504,53.4982145 C50.8173211,54.0308195 51.1217075,54.758916 51.1217075,55.5188848 C51.1217075,56.2788536 50.8173211,57.00695 50.2769504,57.5395551 L37.514183,70.4189677 C36.9832879,70.9610788 36.257529,71.2664456 35.5,71.2664456 C34.742471,71.2664456 34.0167121,70.9610788 33.485817,70.4189677 L20.7230496,57.6150942 C20.1826789,57.0824891 19.8782925,56.3543927 19.8782925,55.5944238 C19.8782925,54.834455 20.1826789,54.1063586 20.7230496,53.5737535 L33.485817,40.76988 L33.485817,40.6943409 Z M13.6451727,50.4766514 L0.844757093,37.6350083 C0.304386429,37.1024032 0,36.3743068 0,35.614338 C0,34.8543692 0.304386429,34.1262728 0.844757093,33.5936677 L13.6451727,20.7520246 C14.1760679,20.2099136 14.9018268,19.9045468 15.6593558,19.9045468 C16.4168847,19.9045468 17.1426436,20.2099136 17.6735388,20.7520246 L30.4739545,33.5936677 C31.57935,34.7125557 31.57935,36.5161203 30.4739545,37.6350083 L17.7111871,50.4388818 C17.1802919,50.9809929 16.454533,51.2863597 15.6970041,51.2863597 C14.9394751,51.2863597 14.2137162,50.9809929 13.682821,50.4388818 L13.6451727,50.4766514 Z M57.3924756,60.5988877 L70.1552429,73.4027612 C70.6956136,73.9353663 71,74.6634627 71,75.4234315 C71,76.1834003 70.6956136,76.9114968 70.1552429,77.4441018 L57.3924756,90.2479754 C56.8615804,90.7900864 56.1358215,91.0954532 55.3782925,91.0954532 C54.6207635,91.0954532 53.8950046,90.7900864 53.3641095,90.2479754 L40.6013421,77.4441018 C39.4959465,76.3252139 39.4959465,74.5216492 40.6013421,73.4027612 L53.3641095,60.5988877 C53.8950046,60.0567766 54.6207635,59.7514098 55.3782925,59.7514098 C56.1358215,59.7514098 56.8615804,60.0567766 57.3924756,60.5988877 L57.3924756,60.5988877 Z M37.5518313,80.5034344 L50.3145987,93.307308 C50.8549693,93.8399131 51.1593558,94.5680095 51.1593558,95.3279783 C51.1593558,96.0879471 50.8549693,96.8160435 50.3145987,97.3486486 L37.5518313,110.152522 C37.0209362,110.694633 36.2951773,111 35.5376483,111 C34.7801193,111 34.0543604,110.694633 33.5234652,110.152522 L20.7606979,97.3486486 C19.6553023,96.2297606 19.6553023,94.4261959 20.7606979,93.307308 L33.5234652,80.5034344 C34.0543604,79.9613234 34.7801193,79.6559566 35.5376483,79.6559566 C36.2951773,79.6559566 37.0209362,79.9613234 37.5518313,80.5034344 Z M30.4739545,73.4405308 C31.0143251,73.9731358 31.3187115,74.7012323 31.3187115,75.4612011 C31.3187115,76.2211699 31.0143251,76.9492663 30.4739545,77.4818714 L17.7111871,90.2857449 C16.5958913,91.3947007 14.7981168,91.3947007 13.682821,90.2857449 L0.844757093,77.4818714 C0.304386429,76.9492663 0,76.2211699 0,75.4612011 C0,74.7012323 0.304386429,73.9731358 0.844757093,73.4405308 L13.6075244,60.6366572 C14.1384196,60.0945461 14.8641785,59.7891794 15.6217075,59.7891794 C16.3792365,59.7891794 17.1049954,60.0945461 17.6358905,60.6366572 L30.3986579,73.4405308 L30.4739545,73.4405308 Z"></path>
            </g>
        </g>
    </g>
</svg>